<svg viewBox="0 0 100 100" xmlns="http://www.w3.org/2000/svg">
  <!-- Minimal cute squirrel - sitting silhouette -->
  <path fill="#2D3748" d="
    M50 85
    C35 85 25 75 25 60
    L25 50
    C25 35 35 25 50 25
    C55 25 60 27 63 30
    L65 20
    C66 15 72 15 73 20
    L70 32
    C75 38 78 46 78 55
    L78 60
    C78 75 68 85 53 85
    Z
    M35 18
    C30 12 35 5 42 8
    C48 11 48 20 43 23
    C40 25 36 22 35 18
    M68 18
    C73 12 68 5 61 8
    C55 11 55 20 60 23
    C63 25 67 22 68 18
  "/>
  <!-- Cute eye -->
  <circle cx="42" cy="45" r="4" fill="white"/>
  <!-- Tail - big fluffy curl -->
  <path fill="#2D3748" d="
    M75 65
    C85 60 92 50 88 38
    C84 26 75 22 68 28
    C62 33 65 42 70 45
    C75 48 78 52 75 60
    Z
  "/>
</svg>