<svg viewBox="0 0 100 100" xmlns="http://www.w3.org/2000/svg">
  <!-- Minimal cute squirrel - running/scurrying silhouette -->
  <path fill="#2D3748" d="
    M20 70
    C15 70 12 65 15 60
    L25 55
    L20 50
    C18 47 20 43 25 43
    L35 45
    L35 40
    C35 32 42 26 52 26
    C60 26 67 30 70 36
    L72 30
    C73 26 78 26 79 30
    L77 40
    C80 45 82 52 80 58
    L85 62
    C90 65 88 72 82 72
    L75 70
    C70 75 62 78 52 78
    L45 78
    C38 78 32 76 28 72
    Z
  "/>
  <!-- Eye -->
  <circle cx="62" cy="42" r="4" fill="white"/>
  <!-- Big fluffy tail going up and back -->
  <path fill="#2D3748" d="
    M25 50
    C18 45 10 35 15 22
    C20 10 35 8 42 18
    C48 26 42 38 35 42
    C30 45 28 48 30 52
    Z
  "/>
</svg>